<svg width="91" height="96" viewBox="0 0 91 96" fill="none" xmlns="http://www.w3.org/2000/svg">
<path fill-rule="evenodd" clip-rule="evenodd" d="M90.9799 57.3087C90.9857 57.3955 90.9857 57.4829 90.9799 57.5697C90.9939 57.6696 91.0007 57.7702 90.9999 57.8709V58.0114V93.9921C90.9999 95.101 90.1019 96 88.9942 96H88.6332L1.64497 79.9372C0.679962 79.7605 -0.0157739 78.9112 0.000271929 77.9293V42.0691C0.00603838 41.8136 0.0604436 41.5614 0.16073 41.3262V41.2057V41.1053C6.0375 30.8653 16.8684 24.3197 31.5302 22.1111C32.834 20.82 34.4744 19.9222 36.2638 19.5209C36.0632 15.184 36.6448 5.10455 45.5703 0.265623C46.5451 -0.288795 47.7844 0.0527904 48.3382 1.02861C48.892 2.00442 48.5508 3.24502 47.576 3.79944C40.6964 7.49389 40.2953 15.8466 40.6362 19.541C42.0976 19.8394 43.4703 20.4716 44.6477 21.3882C47.7347 21.4156 50.8165 21.6437 53.874 22.0709C54.2752 22.1394 54.646 22.3287 54.937 22.613L90.6189 56.7465L90.7994 56.9874C90.8693 57.0888 90.9297 57.1963 90.9799 57.3087ZM44.3869 28.9779C44.3759 25.7842 41.7807 23.2043 38.5904 23.2154C35.4078 23.2264 32.834 25.8123 32.834 28.998V29.0181C32.845 32.2118 35.4402 34.7916 38.6305 34.7806C41.8209 34.7696 44.398 32.1716 44.3869 28.9779ZM29.1434 26.5886C28.9371 27.3684 28.8293 28.1712 28.8225 28.9779C28.6641 34.3871 32.9157 38.9007 38.3191 39.0593C43.7225 39.2179 48.2314 34.9618 48.3899 29.5527C48.4322 28.1067 48.1542 26.6694 47.576 25.3437C49.8425 25.4642 51.5875 25.6649 52.3898 25.7653L82.8366 54.8993L5.45584 40.6034C10.41 33.4554 18.3928 28.7771 29.1434 26.5886ZM4.07189 66.605V76.2427L87.0687 91.5827L87.0487 81.5635L4.07189 66.605ZM4.07189 62.5291V56.5056L87.0487 71.4641L87.0687 77.5278L4.07189 62.5291ZM4.07189 44.4384V52.4698L87.0687 67.4885L87.0286 59.8386L65.6275 55.8229L4.07189 44.4384Z" fill="#F5AE5C"/>
</svg>
