<svg width="102" height="87" viewBox="0 0 102 87" fill="none" xmlns="http://www.w3.org/2000/svg">
<path fill-rule="evenodd" clip-rule="evenodd" d="M39.0961 20.4706C38.1573 20.4706 37.3963 19.7068 37.3963 18.7647C37.3813 16.787 38.123 14.879 39.4684 13.4338C40.3182 12.5879 40.7961 11.4365 40.7961 10.2353C40.7961 9.03412 40.3182 7.88268 39.4684 7.03676C38.123 5.59164 37.3813 3.68356 37.3963 1.70588C37.3963 0.763749 38.1573 0 39.0961 0C40.0349 0 40.796 0.763749 40.796 1.70588C40.7847 2.90926 41.2643 4.06491 42.1235 4.90441C44.8864 7.91753 44.8864 12.5531 42.1235 15.5662C41.2643 16.4057 40.7847 17.5613 40.796 18.7647C40.796 19.7068 40.0349 20.4706 39.0961 20.4706ZM86.53 73.3529H97.9953C98.9769 73.2691 99.9511 73.5824 100.701 74.2231C101.452 74.8639 101.915 75.7789 101.99 76.7647V80.1765C101.99 84.0028 98.2197 87 93.4058 87H15.3835C10.5696 87 6.79933 84.0028 6.79933 80.1765V76.7647C6.87379 75.7789 7.33772 74.8639 8.08792 74.2231C8.83813 73.5824 9.81237 73.2691 10.7939 73.3529H24.9246C21.673 71.058 19.2409 67.7765 17.9859 63.9911C16.1001 64.5326 14.1493 64.8127 12.1878 64.8235C4.78333 64.8235 0 58.4418 0 48.5665C0 44.1482 0 30.7059 12.1878 30.7059C13.8109 30.706 15.4274 30.9136 16.9983 31.3234V29C16.9983 27.1157 18.5204 25.5882 20.398 25.5882H61.194C63.0715 25.5882 64.5936 27.1157 64.5936 29V48.5375C65.0284 48.7318 65.4746 48.8993 65.9297 49.039C66.2514 48.2595 66.6152 47.4981 67.0193 46.7582C67.3788 46.1149 67.9504 45.6173 68.6358 45.3509L77.3645 42.0039C78.066 41.7369 78.8401 41.7338 79.5436 41.9954C80.2835 42.2865 81.006 42.6203 81.7075 42.9951C82.2979 42.1264 82.769 41.182 83.1082 40.1872C83.6384 38.5907 84.9565 37.3848 86.5895 37.0023C86.6404 36.1903 86.6659 35.3766 86.6659 34.5799V34.5796C86.6795 31.2515 86.695 27.4766 90.9036 25.868C91.972 25.4407 93.1763 25.5261 94.1741 26.1C94.9594 26.5384 97.2797 27.8639 99.0033 36.1647C100.519 36.6906 101.598 38.0463 101.772 39.6464C102.202 43.4251 102.023 47.2485 101.242 50.9701C100.318 54.4043 98.8145 57.6544 96.7969 60.5793C96.9533 60.9137 97.0927 61.2207 97.2049 61.4766C97.6305 62.4416 97.5614 63.554 97.0196 64.4585C94.4777 68.4001 90.8269 71.4957 86.53 73.3529ZM92.5117 29.0648C92.3922 28.9836 92.2376 28.9757 92.1105 29.0444C90.2509 29.7557 90.0792 31.0471 90.0707 34.5816C90.069 35.1599 90.0639 35.7809 90.0418 36.4172C92.1989 36.1374 94.0517 36.0112 95.4813 35.9515C94.1979 30.3033 92.8023 29.2269 92.5117 29.0648ZM86.3515 41.2209C86.5247 40.7133 86.9626 40.3428 87.4904 40.2571C87.7086 40.2121 87.9253 40.1762 88.1528 40.1384L88.153 40.1384L88.1531 40.1384L88.1533 40.1383L88.1542 40.1382L88.1572 40.1377C88.2561 40.1213 88.357 40.1045 88.461 40.0865C91.4291 39.5832 94.4327 39.3191 97.4429 39.2967H97.5551C97.9702 39.2683 98.337 39.5658 98.3965 39.9791C98.7882 43.3745 98.6355 46.811 97.9443 50.1581C97.3026 52.5921 96.3078 54.9182 94.9917 57.0618C92.4176 52.288 88.8804 48.1049 84.6057 44.7794C85.3409 43.6754 85.9279 42.4789 86.3515 41.2209ZM78.4694 45.2229L69.9481 48.4897H69.9413C65.7104 56.1969 67.123 66.816 67.9321 71.0415C68.063 71.7306 68.1939 72.3038 68.2908 72.7218C69.4217 73.0859 70.5957 73.2982 71.7822 73.3529H74.0243C76.884 73.146 79.6958 72.5047 82.3637 71.4509C90.1421 68.4724 93.1678 64.3561 94.1078 62.7253C93.0879 60.5281 87.5686 48.8138 78.4694 45.2229ZM59.5944 70.7208C61.2703 71.537 63.0135 72.2059 64.8044 72.7201C64.8382 72.8785 64.8706 73.0213 64.9009 73.1552L64.901 73.1556C64.9164 73.2233 64.9312 73.2888 64.9455 73.3529H56.6044C57.6912 72.5843 58.6935 71.702 59.5944 70.7208ZM57.7603 65.5997C59.6972 67.0385 61.8501 68.1585 64.1381 68.9176C63.26 63.3702 63.4911 57.7029 64.818 52.2461C63.6097 51.8875 62.457 51.3622 61.3928 50.6852C60.9859 50.4444 60.4782 50.4556 60.0823 50.7142C59.8506 50.8491 59.6477 50.9798 59.4533 51.105C59.3725 51.1571 59.2931 51.2082 59.2137 51.2584C56.5887 52.901 54.0933 54.7437 51.7497 56.7701C51.731 56.7905 51.7089 56.811 51.6868 56.8315C51.3062 57.123 51.1789 57.6411 51.3808 58.0768C53.0692 60.9276 55.2261 63.4712 57.7603 65.5997ZM49.4243 45.5948C49.4777 45.4144 49.6163 45.272 49.7949 45.2144C51.5967 44.5321 52.4211 45.3475 54.5204 48.0479C54.8808 48.5102 55.2666 49.0049 55.6814 49.5013C53.8286 50.7483 52.3038 51.9049 51.1514 52.8363C49.3835 48.8821 49.0674 46.5194 49.4243 45.5948ZM12.1878 54.5882C13.8472 54.5647 15.4843 54.2007 16.9983 53.5186V42.5191C15.6358 41.4302 13.9281 40.87 12.1878 40.9412C11.3481 40.9412 10.199 40.9412 10.199 48.5665C10.199 51.4852 10.8959 54.5882 12.1878 54.5882ZM3.39966 48.5685C3.39997 41.8378 4.40036 34.1176 12.1878 34.1176C13.821 34.1095 15.445 34.3634 16.9983 34.8699V38.5359C15.4872 37.8521 13.8453 37.5086 12.1878 37.5294C7.21069 37.5294 6.79933 42.7511 6.79933 48.5665C6.79933 54.4739 8.81363 58 12.1878 58C13.8271 57.9831 15.4525 57.6949 16.9983 57.1471V58C17.0055 58.8917 17.0771 59.7816 17.2125 60.6629C15.5806 61.1465 13.8893 61.3986 12.1878 61.4118C6.6859 61.4118 3.40022 56.6105 3.39966 48.5685ZM20.398 58C20.3964 59.1624 20.5293 60.3211 20.794 61.4527V61.4476C22.3652 68.432 28.5618 73.3823 35.6965 73.3529H45.8955C49.9001 73.3589 53.7447 71.7756 56.5908 68.9484L56.5367 68.9112L56.5367 68.9111L56.5366 68.9111L56.5365 68.911C56.247 68.7121 55.958 68.5135 55.678 68.2967C52.8229 65.9179 50.392 63.0687 48.4894 59.8714C47.6478 58.465 47.6775 56.7005 48.5659 55.3235C46.1419 50.2536 45.3702 46.6439 46.2558 44.3529C46.6585 43.2737 47.5092 42.4238 48.5863 42.0244C52.8755 40.3847 55.2662 43.4595 57.1903 45.9341L57.2011 45.9479C57.6515 46.5279 58.1241 47.1079 58.6153 47.6709C59.4075 47.2536 60.3032 47.0758 61.194 47.1591V29H20.398L20.398 58ZM98.5903 80.1765C98.5903 82.0256 96.2105 83.5882 93.4058 83.5882H15.3835C12.5788 83.5882 10.199 82.0256 10.199 80.1765V76.9199C10.3782 76.8117 10.5849 76.7578 10.7939 76.7647H97.9953C98.2044 76.7578 98.411 76.8117 98.5903 76.9199V80.1765ZM27.1973 18.7647C27.1973 19.7068 27.9584 20.4706 28.8971 20.4706C29.8359 20.4706 30.597 19.7068 30.597 18.7647C30.5857 17.5613 31.0654 16.4057 31.9245 15.5662C34.6874 12.5531 34.6874 7.91753 31.9245 4.90441C31.0654 4.06491 30.5857 2.90926 30.597 1.70588C30.597 0.763749 29.8359 0 28.8971 0C27.9584 0 27.1973 0.763749 27.1973 1.70588C27.1823 3.68356 27.924 5.59164 29.2694 7.03676C30.1192 7.88268 30.5971 9.03412 30.5971 10.2353C30.5971 11.4365 30.1192 12.5879 29.2694 13.4338C27.924 14.879 27.1823 16.787 27.1973 18.7647ZM49.2951 20.4706C48.3563 20.4706 47.5953 19.7068 47.5953 18.7647C47.5803 16.787 48.322 14.879 49.6674 13.4338C50.5172 12.5879 50.9951 11.4365 50.9951 10.2353C50.9951 9.03412 50.5172 7.88268 49.6674 7.03676C48.322 5.59164 47.5803 3.68356 47.5953 1.70588C47.5953 0.763749 48.3563 0 49.2951 0C50.2339 0 50.995 0.763749 50.995 1.70588C50.9837 2.90926 51.4633 4.06491 52.3225 4.90441C55.0854 7.91753 55.0854 12.5531 52.3225 15.5662C51.4633 16.4057 50.9837 17.5613 50.995 18.7647C50.995 19.7068 50.2339 20.4706 49.2951 20.4706Z" fill="#F5AE5C"/>
</svg>
