<svg width="106" height="30" viewBox="0 0 106 30" fill="none" xmlns="http://www.w3.org/2000/svg">
<path d="M32.0312 7.39844C32.0312 11.5651 29.8633 13.8438 25.5273 14.2344V14.4492C27.793 14.5013 29.5768 15.1198 30.8789 16.3047C32.181 17.4896 32.832 19.2018 32.832 21.4414C32.832 22.3789 32.7214 23.3034 32.5 24.2148C32.2786 25.1133 31.7969 25.9141 31.0547 26.6172C30.3255 27.3203 29.2643 27.8932 27.8711 28.3359C26.4909 28.7786 24.6289 29 22.2852 29H0.800781V21.7539C1.94661 21.7539 2.76693 21.6042 3.26172 21.3047C3.75651 20.9922 4.00391 20.4128 4.00391 19.5664V9.68359C4.00391 8.82422 3.75651 8.24479 3.26172 7.94531C2.76693 7.63281 1.94661 7.47656 0.800781 7.47656V0.230469H23.6328C25.4297 0.230469 26.8815 0.432292 27.9883 0.835938C29.0951 1.23958 29.9479 1.77344 30.5469 2.4375C31.1458 3.10156 31.543 3.86979 31.7383 4.74219C31.9336 5.60156 32.0312 6.48698 32.0312 7.39844ZM18.4375 21.7539C19.5312 21.7539 20.2865 21.5456 20.7031 21.1289C21.1198 20.6992 21.3281 19.9896 21.3281 19C21.3281 18.0104 21.1198 17.2943 20.7031 16.8516C20.2865 16.3958 19.5312 16.168 18.4375 16.168H15.5273V21.7539H18.4375ZM15.5273 12.7109H18.4766C19.2839 12.7109 19.8633 12.457 20.2148 11.9492C20.5794 11.4284 20.7617 10.8034 20.7617 10.0742C20.7617 9.38411 20.5794 8.77865 20.2148 8.25781C19.8633 7.73698 19.2839 7.47656 18.4766 7.47656H15.5273V12.7109ZM49.1602 12.2422L53.0273 9.83984C53.5091 9.57943 53.8216 9.3125 53.9648 9.03906C54.1211 8.7526 54.1602 8.4987 54.082 8.27734C54.0169 8.04297 53.8477 7.85417 53.5742 7.71094C53.3138 7.55469 53.0143 7.47656 52.6758 7.47656V0.230469H68.4375V7.47656C67.6042 7.47656 66.875 7.56771 66.25 7.75C65.625 7.91927 64.9284 8.23177 64.1602 8.6875L60.1172 11.0703L66.6797 19.5664C66.9141 19.9049 67.1419 20.2109 67.3633 20.4844C67.5977 20.7448 67.8451 20.9727 68.1055 21.168C68.3789 21.3503 68.6914 21.4935 69.043 21.5977C69.4076 21.7018 69.8568 21.7539 70.3906 21.7539V29H52.6758V21.7539C53.2357 21.7539 53.6393 21.6758 53.8867 21.5195C54.1471 21.3633 54.3099 21.1745 54.375 20.9531C54.4401 20.7188 54.4336 20.4974 54.3555 20.2891C54.2773 20.0677 54.1992 19.9049 54.1211 19.8008L51.3086 16.2852L49.1602 17.5938V19.8008C49.1602 20.1523 49.1732 20.4453 49.1992 20.6797C49.2253 20.9141 49.3099 21.1159 49.4531 21.2852C49.5964 21.4414 49.8047 21.5586 50.0781 21.6367C50.3646 21.7148 50.7487 21.7539 51.2305 21.7539V29H34.4336V21.7539C35.5794 21.7539 36.3997 21.6042 36.8945 21.3047C37.3893 20.9922 37.6367 20.4128 37.6367 19.5664V9.68359C37.6367 8.82422 37.3893 8.24479 36.8945 7.94531C36.3997 7.63281 35.5794 7.47656 34.4336 7.47656V0.230469H51.2305V7.47656C50.7487 7.47656 50.3646 7.51562 50.0781 7.59375C49.8047 7.67188 49.5964 7.79557 49.4531 7.96484C49.3099 8.12109 49.2253 8.32292 49.1992 8.57031C49.1732 8.80469 49.1602 9.09766 49.1602 9.44922V12.2422ZM71.3867 29V21.7539C72.5326 21.7539 73.3529 21.6042 73.8477 21.3047C74.3424 20.9922 74.5898 20.4128 74.5898 19.5664V9.68359C74.5898 8.82422 74.3424 8.24479 73.8477 7.94531C73.3529 7.63281 72.5326 7.47656 71.3867 7.47656V0.230469H92.0703C93.9844 0.230469 95.5924 0.419271 96.8945 0.796875C98.2096 1.17448 99.2578 1.71484 100.039 2.41797C100.833 3.12109 101.393 3.96094 101.719 4.9375C102.057 5.91406 102.227 7.0013 102.227 8.19922C102.227 10.3867 101.699 12.138 100.645 13.4531C99.5898 14.7552 97.9036 15.4583 95.5859 15.5625V15.7969C96.7057 15.875 97.6302 16.0833 98.3594 16.4219C99.1016 16.7604 99.681 17.2031 100.098 17.75C100.527 18.2839 100.827 18.9349 100.996 19.7031C101.178 20.4583 101.27 21.3177 101.27 22.2812V23.3164C101.27 23.6419 101.354 23.9284 101.523 24.1758C101.693 24.4102 101.953 24.5273 102.305 24.5273C102.682 24.5273 102.949 24.4102 103.105 24.1758C103.262 23.9284 103.34 23.6419 103.34 23.3164V18.3555H105.586V23.3164C105.586 24.2539 105.443 25.1198 105.156 25.9141C104.883 26.6953 104.427 27.3789 103.789 27.9648C103.151 28.5508 102.311 29 101.27 29.3125C100.228 29.638 98.9453 29.8008 97.4219 29.8008C95.8984 29.8008 94.6484 29.6315 93.6719 29.293C92.7083 28.9674 91.9531 28.5117 91.4062 27.9258C90.8594 27.3398 90.4753 26.6628 90.2539 25.8945C90.0456 25.1133 89.9414 24.293 89.9414 23.4336V21.9297C89.9414 20.888 89.8828 20.0482 89.7656 19.4102C89.6484 18.7591 89.4531 18.2578 89.1797 17.9062C88.9193 17.5417 88.5742 17.3008 88.1445 17.1836C87.7148 17.0664 87.194 17.0078 86.582 17.0078H86.1133V19.8008C86.1133 20.4909 86.3021 20.9922 86.6797 21.3047C87.0703 21.6042 87.7604 21.7539 88.75 21.7539V29H71.3867ZM86.1133 13.5508H87.832C88.9258 13.5508 89.6745 13.2904 90.0781 12.7695C90.4948 12.2357 90.7031 11.5 90.7031 10.5625C90.7031 9.46875 90.4948 8.68099 90.0781 8.19922C89.6745 7.71745 88.9258 7.47656 87.832 7.47656H86.1133V13.5508Z" fill="black"/>
</svg>
